# xmcd
#
# Track frame offsets: 
#        150
#        16218
#        32110
#        47362
#        61075
#        78736
#        96310
#        110442
#        123828
#        142272
#
# Disc length: 2082 seconds
#
# Revision: 0
# Processed by: cddbd v1.5.2PL0 Copyright (c) Steve Scherf et al.
# Submitted via: ExactAudioCopy v1.0b1
#
DISCID=8008200a
DTITLE=Ron Davies - Lucky To Be Alive
DYEAR=2000
DGENRE=
TTITLE0=Lucky To Be Alive
TTITLE1=Lovin' You Is Hard
TTITLE2=The Man He Used to Be
TTITLE3=Rise To The Occasion
TTITLE4=Say It With Money
TTITLE5=So Down home
TTITLE6=Wicked City Lights
TTITLE7=Walk and don't walk
TTITLE8=Voo Doo Eyes
TTITLE9=True Lovers And Friends
EXTD=
EXTT0=
EXTT1=
EXTT2=
EXTT3=
EXTT4=
EXTT5=
EXTT6=
EXTT7=
EXTT8=
EXTT9=
PLAYORDER=
